<svg width="690" height="215" viewBox="0 0 690 215" fill="none" xmlns="http://www.w3.org/2000/svg">
<path d="M216.821 164.107V50.1805H255.312C280.905 50.1805 298.069 63.8709 298.069 100.367V113.92C298.069 150.416 280.905 164.107 255.312 164.107H216.821V164.107ZM278.909 113.92V100.367C278.909 76.9078 271.651 66.8636 255.312 66.8636H235.981V147.596H255.312C271.651 147.596 278.909 137.345 278.909 113.92Z" fill="white"/>
<path d="M324.832 196.475V180.721H345.608C358.817 180.721 364.596 175.837 364.596 162.456V158.672C360.124 163.281 353.52 165.62 344.783 165.62C322.837 165.62 311.932 149.935 311.932 128.298V117.085C311.932 93.3156 324.797 80.1067 344.783 80.1067C353.692 80.1067 360.124 82.7553 364.596 87.3647V81.5858H382.104V162.49C382.104 187.91 367.588 196.51 346.124 196.51H324.866L324.832 196.475ZM364.596 127.438V117.876C364.596 103.669 358.817 95.4138 347.087 95.4138C335.357 95.4138 329.407 103.497 329.407 117.876V127.438C329.407 140.303 334.36 150.382 347.087 150.382C359.815 150.382 364.596 140.303 364.596 127.438Z" fill="white"/>
<path d="M452.273 95.7603H433.939C425.029 95.7603 418.735 102.365 418.735 114.267V164.144H401.054V81.5539H418.391V88.9839C421.521 84.2026 427.128 80.0748 436.897 80.0748H452.273V95.7603Z" fill="white"/>
<path d="M468.477 80.0748H485.023C506.143 80.0748 517.564 86.6792 517.564 108.625V164.109H500.227V156.507C496.271 162.94 491.146 165.588 481.067 165.588C462.905 165.588 451.691 156.335 451.691 139.824C451.691 122.144 464.728 115.402 482.409 115.402H500.227V108.453C500.227 98.065 496.271 95.7603 483.888 95.7603H468.443V80.0748H468.477ZM500.261 128.954H483.75C473.362 128.954 469.062 132.601 469.062 139.859C469.062 147.117 474.669 150.591 483.097 150.591C493.829 150.591 500.261 147.289 500.261 132.91V128.954Z" fill="white"/>
<path d="M606.55 128.301C606.55 149.765 595.989 165.623 574.009 165.623C564.446 165.623 558.151 163.318 554.024 158.846V195.515H536.343V81.5539H554.024V88.1584C558.151 83.0331 564.756 80.0748 574.181 80.0748C593.994 80.0748 606.55 93.4557 606.55 117.053V128.267V128.301ZM589.041 127.475V117.913C589.041 103.534 583.262 95.4508 571.532 95.4508C559.802 95.4508 554.196 103.362 554.024 116.915V127.475C554.024 140.34 558.151 150.419 571.532 150.419C584.088 150.419 589.041 140.34 589.041 127.475Z" fill="white"/>
<path d="M622.098 50.1805H639.779V88.672C643.253 83.7186 649.204 80.0725 659.936 80.0725C676.963 80.0725 690 88.672 690 112.441V164.141H672.492V114.436C672.492 99.9201 665.887 95.7924 656.806 95.7924C645.902 95.7924 639.813 103.222 639.813 114.299V164.176H622.133V50.1805H622.098Z" fill="white"/>
<path d="M169.466 73.5161C163.704 59.5574 154.753 47.8965 143.812 38.9793C147.894 32.2229 148.854 23.7173 145.596 15.8634C140.177 2.76203 125.155 -3.47997 112.054 1.9732C104.2 5.23139 98.8493 11.9192 96.963 19.5674C82.9356 18.127 68.3595 20.0476 54.4008 25.8437C9.47211 44.4668 -11.8947 95.9804 6.72839 140.943C12.4902 154.902 21.4416 166.563 32.3823 175.48C28.3009 182.237 27.3407 190.742 30.5989 198.596C36.0177 211.697 51.0397 217.94 64.141 212.486C71.995 209.228 77.3452 202.54 79.2316 194.892C93.2589 196.333 107.835 194.412 121.794 188.616C166.722 169.993 188.089 118.479 169.466 73.5161Z" fill="#FF0C4B"/>
<path d="M99.5343 79.6188L99.2942 80.2018H130.984L94.9728 116.213H127.006L64.0715 179.148C65.3062 180.348 66.3007 181.789 66.9866 183.469C69.8676 190.466 66.5409 198.491 59.5786 201.372C56.0804 202.847 52.3078 202.71 49.0839 201.372C47.4719 200.72 45.9628 199.76 44.7281 198.491C43.4591 197.256 42.396 195.713 41.6758 193.964C38.7605 186.967 42.0873 178.976 49.0839 176.061C52.5821 174.621 56.3548 174.724 59.5786 176.061L76.8641 134.288V134.185H44.9339L80.9454 98.1733H48.9123L111.984 35.1017C110.818 33.9356 109.892 32.4951 109.206 30.8832C106.325 23.8867 109.617 15.8955 116.614 12.9803C120.112 11.5399 123.885 11.6427 127.109 13.0146C128.652 13.632 130.093 14.558 131.327 15.7584C132.665 17.0273 133.762 18.5707 134.517 20.3884C137.398 27.3849 134.105 35.4104 127.109 38.2913C123.611 39.7317 119.872 39.6289 116.648 38.2913L99.5343 79.5845V79.6188Z" fill="white"/>
</svg>
