<?xml version="1.0" encoding="UTF-8" standalone="no"?>
<svg
   viewBox="0 0 367 100"
   fill="#e10098"
   version="1.1"
   id="svg12"
   sodipodi:docname="grapql_new"
   inkscape:version="1.3.1 (9b9bdc1480, 2023-11-25, custom)"
   xmlns:inkscape="http://www.inkscape.org/namespaces/inkscape"
   xmlns:sodipodi="http://sodipodi.sourceforge.net/DTD/sodipodi-0.dtd"
   xmlns="http://www.w3.org/2000/svg"
   xmlns:svg="http://www.w3.org/2000/svg">
  <defs
     id="defs12" />
  <sodipodi:namedview
     id="namedview12"
     pagecolor="#ffffff"
     bordercolor="#000000"
     borderopacity="0.25"
     inkscape:showpageshadow="2"
     inkscape:pageopacity="0.0"
     inkscape:pagecheckerboard="true"
     inkscape:deskcolor="#d1d1d1"
     inkscape:zoom="2.1716621"
     inkscape:cx="183.73024"
     inkscape:cy="50.19197"
     inkscape:window-width="1296"
     inkscape:window-height="704"
     inkscape:window-x="0"
     inkscape:window-y="0"
     inkscape:window-maximized="1"
     inkscape:current-layer="svg12" />
  <style
     id="style1">svg{fill:color(display-p3 0.8824 0 0.5961);}</style>
  <path
     fill-rule="evenodd"
     clip-rule="evenodd"
     d="M50 6.90308L87.323 28.4515V71.5484L50 93.0968L12.677 71.5484V28.4515L50 6.90308ZM16.8647 30.8693V62.5251L44.2795 15.0414L16.8647 30.8693ZM50 13.5086L18.3975 68.2457H81.6025L50 13.5086ZM77.4148 72.4334H22.5852L50 88.2613L77.4148 72.4334ZM83.1353 62.5251L55.7205 15.0414L83.1353 30.8693V62.5251Z"
     id="path1" />
  <circle
     cx="50"
     cy="9.3209"
     r="8.82"
     id="circle1" />
  <circle
     cx="85.2292"
     cy="29.6605"
     r="8.82"
     id="circle2" />
  <circle
     cx="85.2292"
     cy="70.3396"
     r="8.82"
     id="circle3" />
  <circle
     cx="50"
     cy="90.6791"
     r="8.82"
     id="circle4" />
  <circle
     cx="14.7659"
     cy="70.3396"
     r="8.82"
     id="circle5" />
  <circle
     cx="14.7659"
     cy="29.6605"
     r="8.82"
     id="circle6" />
  <path
     d="m 138.9291,71.1241 c -5.208,0 -9.25,-1.5 -12.125,-4.5 -2.875,-3 -4.396,-7.0208 -4.562,-12.0625 -0.042,-1.25 -0.063,-3.2292 -0.063,-5.9375 0,-2.7083 0.021,-4.6875 0.063,-5.9375 0.166,-5.0417 1.687,-9.0625 4.562,-12.0625 2.875,-3 6.917,-4.5 12.125,-4.5 3.542,0 6.521,0.6667 8.938,2 2.416,1.3333 4.208,2.9167 5.375,4.75 1.208,1.7917 1.854,3.3958 1.937,4.8125 v 0.125 c 0,0.3333 -0.125,0.6042 -0.375,0.8125 -0.25,0.2083 -0.562,0.3125 -0.938,0.3125 h -1.374 c -0.375,0 -0.646,-0.0833 -0.813,-0.25 -0.167,-0.1667 -0.333,-0.5 -0.5,-1 -0.708,-2.2083 -2.083,-4.0625 -4.125,-5.5625 -2,-1.5 -4.708,-2.25 -8.125,-2.25 -3.875,0 -6.937,1.0625 -9.187,3.1875 -2.209,2.125 -3.396,5.4375 -3.563,9.9375 -0.042,1.25 -0.062,3.125 -0.062,5.625 0,2.5 0.02,4.375 0.062,5.625 0.167,4.5 1.354,7.8125 3.563,9.9375 2.25,2.125 5.312,3.1875 9.187,3.1875 3.875,0 7,-1.1042 9.375,-3.3125 2.375,-2.2083 3.562,-5.4792 3.562,-9.8125 v -3.1875 h -10.874 c -0.417,0 -0.75,-0.125 -1,-0.375 -0.25,-0.2917 -0.375,-0.6458 -0.375,-1.0625 v -0.875 c 0,-0.4167 0.125,-0.75 0.375,-1 0.25,-0.2917 0.583,-0.4375 1,-0.4375 h 13.374 c 0.459,0 0.813,0.125 1.063,0.375 0.25,0.25 0.375,0.6042 0.375,1.0625 v 5.5 c 0,3.3333 -0.667,6.2708 -2,8.8125 -1.333,2.5417 -3.271,4.5208 -5.812,5.9375 -2.542,1.4167 -5.563,2.125 -9.063,2.125 z"
     id="path6-2"
     style="fill:#ffffff" />
  <path
     d="m 165.9951,70.4991 c -0.416,0 -0.75,-0.125 -1,-0.375 -0.25,-0.25 -0.375,-0.5833 -0.375,-1 V 39.4366 c 0,-0.4167 0.125,-0.75 0.375,-1 0.25,-0.2917 0.584,-0.4375 1,-0.4375 h 1 c 0.417,0 0.75,0.1458 1,0.4375 0.292,0.25 0.438,0.5833 0.438,1 v 2.875 c 1.5,-2.875 4.333,-4.3125 8.5,-4.3125 h 2.312 c 0.417,0 0.75,0.125 1,0.375 0.25,0.25 0.375,0.5833 0.375,1 v 0.875 c 0,0.4167 -0.125,0.75 -0.375,1 -0.25,0.25 -0.583,0.375 -1,0.375 h -2.687 c -2.5,0 -4.479,0.7292 -5.938,2.1875 -1.458,1.4583 -2.187,3.4375 -2.187,5.9375 v 19.375 c 0,0.4167 -0.146,0.75 -0.438,1 -0.25,0.25 -0.583,0.375 -1,0.375 z"
     id="path7-9"
     style="fill:#ffffff" />
  <path
     d="m 194.6111,71.1241 c -2,0 -3.855,-0.4167 -5.563,-1.25 -1.708,-0.8333 -3.083,-1.9583 -4.125,-3.375 -1,-1.4167 -1.5,-2.9792 -1.5,-4.6875 0,-2.75 1.104,-5 3.313,-6.75 2.25,-1.75 5.27,-2.875 9.062,-3.375 l 9.875,-1.375 v -2.1875 c 0,-2.2917 -0.708,-4.0417 -2.125,-5.25 -1.375,-1.25 -3.5,-1.875 -6.375,-1.875 -2.125,0 -3.875,0.4167 -5.25,1.25 -1.333,0.8333 -2.187,1.8333 -2.562,3 -0.167,0.5 -0.375,0.8542 -0.625,1.0625 -0.209,0.1667 -0.5,0.25 -0.875,0.25 h -0.875 c -0.375,0 -0.709,-0.125 -1,-0.375 -0.25,-0.2917 -0.375,-0.625 -0.375,-1 0,-0.9167 0.416,-1.9792 1.25,-3.1875 0.833,-1.25 2.125,-2.3333 3.875,-3.25 1.75,-0.9167 3.895,-1.375 6.437,-1.375 4.458,0 7.625,1.0625 9.5,3.1875 1.875,2.125 2.813,4.7083 2.813,7.75 v 20.8125 c 0,0.4167 -0.125,0.75 -0.375,1 -0.25,0.25 -0.584,0.375 -1,0.375 h -1.063 c -0.417,0 -0.75,-0.125 -1,-0.375 -0.25,-0.25 -0.375,-0.5833 -0.375,-1 v -2.9375 c -0.917,1.375 -2.271,2.5417 -4.062,3.5 -1.75,0.9583 -4.084,1.4375 -7,1.4375 z m 0.625,-3.625 c 3.041,0 5.541,-1 7.5,-3 1.958,-2 2.937,-4.875 2.937,-8.625 v -2.125 l -8.062,1.125 c -3.417,0.4583 -6,1.25 -7.75,2.375 -1.75,1.125 -2.625,2.5417 -2.625,4.25 0,1.9167 0.791,3.3958 2.375,4.4375 1.625,1.0417 3.5,1.5625 5.625,1.5625 z"
     id="path8-8"
     style="fill:#ffffff" />
  <path
     d="m 220.8061,82.3741 c -0.416,0 -0.75,-0.125 -1,-0.375 -0.25,-0.25 -0.375,-0.5833 -0.375,-1 v -41.625 c 0,-0.4167 0.125,-0.75 0.375,-1 0.25,-0.25 0.584,-0.375 1,-0.375 h 1.063 c 0.417,0 0.75,0.125 1,0.375 0.25,0.25 0.375,0.5833 0.375,1 v 2.9375 c 2.417,-3.2917 5.917,-4.9375 10.5,-4.9375 4.5,0 7.812,1.4375 9.937,4.3125 2.167,2.8333 3.313,6.3333 3.438,10.5 0.042,0.4167 0.062,1.1042 0.062,2.0625 0,0.9583 -0.02,1.6458 -0.062,2.0625 -0.125,4.1667 -1.271,7.6875 -3.438,10.5625 -2.125,2.8333 -5.437,4.25 -9.937,4.25 -4.542,0 -8.042,-1.6458 -10.5,-4.9375 v 14.8125 c 0,0.4167 -0.125,0.75 -0.375,1 -0.25,0.25 -0.583,0.375 -1,0.375 z m 12.563,-14.875 c 3.375,0 5.833,-1.0625 7.375,-3.1875 1.583,-2.1667 2.437,-4.9375 2.562,-8.3125 0.042,-0.4167 0.063,-1 0.063,-1.75 0,-3.875 -0.75,-7.0417 -2.25,-9.5 -1.5,-2.5 -4.083,-3.75 -7.75,-3.75 -3.292,0 -5.771,1.1042 -7.438,3.3125 -1.666,2.1667 -2.562,4.7292 -2.687,7.6875 l -0.063,2.4375 0.063,2.4375 c 0.042,1.7917 0.437,3.5 1.187,5.125 0.75,1.5833 1.875,2.8958 3.375,3.9375 1.5,1.0417 3.355,1.5625 5.563,1.5625 z"
     id="path9-5"
     style="fill:#ffffff" />
  <path
     d="m 257.1221,70.4991 c -0.416,0 -0.75,-0.125 -1,-0.375 -0.25,-0.25 -0.375,-0.5833 -0.375,-1 v -41.625 c 0,-0.4167 0.125,-0.75 0.375,-1 0.25,-0.25 0.584,-0.375 1,-0.375 h 1.063 c 0.417,0 0.75,0.125 1,0.375 0.25,0.25 0.375,0.5833 0.375,1 v 14.8125 c 1.25,-1.625 2.667,-2.8542 4.25,-3.6875 1.625,-0.8333 3.708,-1.25 6.25,-1.25 4.083,0 7.229,1.3125 9.437,3.9375 2.209,2.5833 3.313,5.9375 3.313,10.0625 v 17.75 c 0,0.4167 -0.125,0.75 -0.375,1 -0.25,0.25 -0.583,0.375 -1,0.375 h -1.063 c -0.416,0 -0.75,-0.125 -1,-0.375 -0.25,-0.25 -0.375,-0.5833 -0.375,-1 V 51.6866 c 0,-3.375 -0.833,-6 -2.5,-7.875 -1.625,-1.875 -3.979,-2.8125 -7.062,-2.8125 -3,0 -5.396,0.9583 -7.188,2.875 -1.791,1.875 -2.687,4.4792 -2.687,7.8125 v 17.4375 c 0,0.4167 -0.125,0.75 -0.375,1 -0.25,0.25 -0.583,0.375 -1,0.375 z"
     id="path10-7"
     style="fill:#ffffff" />
  <path
     d="m 321.7361,74.5616 c -0.625,0 -1.292,-0.4792 -2,-1.4375 l -2.75,-3.8125 c -2.5,1.2083 -5.417,1.8125 -8.75,1.8125 -10.708,0 -16.208,-5.75 -16.5,-17.25 -0.042,-1.25 -0.062,-3 -0.062,-5.25 0,-2.25 0.02,-4 0.062,-5.25 0.167,-5.6667 1.708,-9.9583 4.625,-12.875 2.917,-2.9167 6.875,-4.375 11.875,-4.375 5,0 8.958,1.4583 11.875,4.375 2.917,2.9167 4.458,7.2083 4.625,12.875 0.083,2.5 0.125,4.25 0.125,5.25 0,1 -0.042,2.75 -0.125,5.25 -0.208,5.9583 -1.729,10.3333 -4.562,13.125 l 4,5.625 c 0.125,0.25 0.187,0.4792 0.187,0.6875 0,0.3333 -0.125,0.625 -0.375,0.875 -0.25,0.25 -0.542,0.375 -0.875,0.375 z m -13.5,-7.1875 c 3.75,0 6.729,-1.125 8.938,-3.375 2.25,-2.2917 3.458,-5.7708 3.625,-10.4375 0.083,-2.5 0.125,-4.1458 0.125,-4.9375 0,-0.7917 -0.042,-2.4375 -0.125,-4.9375 -0.167,-4.6667 -1.375,-8.125 -3.625,-10.375 -2.25,-2.2917 -5.23,-3.4375 -8.938,-3.4375 -3.708,0 -6.687,1.1458 -8.937,3.4375 -2.25,2.25 -3.459,5.7083 -3.625,10.375 -0.042,1.25 -0.063,2.8958 -0.063,4.9375 0,2.0417 0.021,3.6875 0.063,4.9375 0.166,4.6667 1.354,8.1458 3.562,10.4375 2.25,2.25 5.25,3.375 9,3.375 z"
     id="path11-0"
     style="fill:#ffffff" />
  <path
     d="m 336.1801,70.4991 c -0.416,0 -0.75,-0.125 -1,-0.375 -0.25,-0.25 -0.375,-0.5833 -0.375,-1 v -41 c 0,-0.4167 0.125,-0.75 0.375,-1 0.25,-0.25 0.584,-0.375 1,-0.375 h 1.188 c 0.417,0 0.75,0.125 1,0.375 0.25,0.25 0.375,0.5833 0.375,1 v 38.625 h 21.562 c 0.459,0 0.813,0.125 1.063,0.375 0.25,0.25 0.375,0.6042 0.375,1.0625 v 0.9375 c 0,0.4167 -0.146,0.75 -0.438,1 -0.25,0.25 -0.583,0.375 -1,0.375 z"
     id="path12-7"
     style="fill:#ffffff" />
</svg>
